#!OML:ASF F:\VICON\USERDATA\INSTALL\rory3\rory3.ASF
:FULLY-SPECIFIED
:DEGREES
658
root 5.27079 16.9134 1.91616 6.92157 -14.428 -7.0012
lowerback 21.8519 -0.450528 3.82179
upperback 5.62294 0.275256 1.2445
thorax -6.03911 0.070857 -0.906637
lowerneck -15.3765 -0.413753 -1.48279
upperneck 38.4996 0.359856 -1.80166
head 16.4008 -0.39965 -0.485054
rclavicle -1.25234e-014 -2.66371e-014
rhumerus -34.4445 -6.98794 -17.5084
rradius 35.0364
rwrist 5.15731
rhand -18.1563 -46.9335
rfingers 7.12502
rthumb 8.11948 -76.7576
lclavicle -1.25234e-014 -2.66371e-014
lhumerus -34.8771 6.70007 12.3594
lradius 27.6893
lwrist 15.9854
lhand -23.772 -34.7824
lfingers 7.12502
lthumb 2.69751 -4.81972
rfemur -100.808 0.0677215 26.9784
rtibia 95.6019
rfoot 48.1343 0.952537
rtoes -2.52533
lfemur -28.5792 6.8915 -24.2153
ltibia 42.2141
lfoot -17.9217 8.94548
ltoes 12.4228
659
root 5.26946 16.9106 1.91405 6.90319 -14.4557 -6.97417
lowerback 21.8212 -0.452945 3.78855
upperback 5.62532 0.262438 1.23307
thorax -6.02142 0.0652837 -0.896693
lowerneck -15.443 -0.423962 -1.67424
upperneck 38.6502 0.309582 -1.54634
head 16.4956 -0.415204 -0.349942
rclavicle -1.59028e-015 8.34896e-015
rhumerus -34.3894 -7.04923 -17.5012
rradius 34.9807
rwrist 5.24928
rhand -18.102 -46.8495
rfingers 7.12502
rthumb 8.17185 -76.6715
lclavicle -1.59028e-015 8.34896e-015
lhumerus -34.8999 6.72952 12.3382
lradius 27.6581
lwrist 16.043
lhand -23.9299 -34.6751
lfingers 7.12502
lthumb 2.54506 -4.71058
rfemur -100.811 0.0983189 26.9398
rtibia 95.6107
rfoot 48.0972 0.779163
rtoes -2.46008
lfemur -28.6072 6.91264 -24.2366
ltibia 42.263
lfoot -17.9732 8.94054
ltoes 12.5409
660
root 5.26745 16.9083 1.91129 6.9121 -14.4672 -6.96409
lowerback 21.7999 -0.466992 3.75983
upperback 5.63451 0.235241 1.21494
thorax -6.00167 0.0527745 -0.892789
lowerneck -15.5863 -0.395118 -1.72106
upperneck 38.7508 0.316467 -1.40372
head 16.584 -0.401439 -0.279282
rclavicle -3.35946e-014 9.93923e-015
rhumerus -34.3291 -7.11168 -17.5726
rradius 34.9476
rwrist 5.28116
rhand -18.2299 -46.7732
rfingers 7.12502
rthumb 8.04849 -76.5999
lclavicle -3.35946e-014 9.93923e-015
lhumerus -34.9087 6.75732 12.2956
lradius 27.5653
lwrist 16.0213
lhand -24.1596 -34.5957
lfingers 7.12502
lthumb 2.32323 -4.62856
rfemur -100.83 0.122002 26.9242
rtibia 95.6057
rfoot 47.9926 0.893255
rtoes -2.98471
lfemur -28.6583 6.88325 -24.2313
ltibia 42.2892
lfoot -17.9777 8.94463
ltoes 12.6934
661
root 5.26787 16.9072 1.90921 6.93161 -14.4538 -6.91189
lowerback 21.7871 -0.479451 3.73768
upperback 5.64134 0.21127 1.1842
thorax -5.98864 0.0417043 -0.90708
lowerneck -15.557 -0.391626 -1.72753
upperneck 38.5416 0.2884 -1.31852
head 16.4651 -0.399199 -0.243004
rclavicle -2.08724e-014 -1.03368e-014
rhumerus -34.2773 -7.28534 -17.6038
rradius 34.8745
rwrist 5.41961
rhand -18.4353 -46.6019
rfingers 7.12502
rthumb 7.85025 -76.4361
lclavicle -2.08724e-014 -1.03368e-014
lhumerus -34.9069 6.91142 12.2485
lradius 27.5989
lwrist 15.8848
lhand -24.177 -34.4907
lfingers 7.12502
lthumb 2.30645 -4.5234
rfemur -100.868 0.0910339 26.8714
rtibia 95.5776
rfoot 47.9302 1.34163
rtoes -3.7464
lfemur -28.6936 6.76462 -24.2819
ltibia 42.2868
lfoot -17.9415 9.02583
ltoes 12.6067
662
root 5.27111 16.9091 1.90794 6.94132 -14.4496 -6.84818
lowerback 21.7344 -0.481741 3.74977
upperback 5.65822 0.205737 1.15607
thorax -5.94299 0.0398785 -0.942946
lowerneck -15.2044 -0.438968 -1.94559
upperneck 38.0418 0.173356 -1.05351
head 16.1162 -0.433805 -0.102218
rclavicle 1.98785e-016 -2.54444e-014
rhumerus -34.2054 -7.53667 -17.5386
rradius 34.7363
rwrist 5.57625
rhand -18.3763 -46.4381
rfingers 7.12502
rthumb 7.90718 -76.2702
lclavicle 1.98785e-016 -2.54444e-014
lhumerus -34.9653 7.07695 12.2306
lradius 27.7195
lwrist 15.8409
lhand -24.6003 -32.974
lfingers 7.12502
lthumb 1.89759 -3.00264
rfemur -100.9 0.0300761 26.8133
rtibia 95.5571
rfoot 47.9005 1.8843
rtoes -4.92201
lfemur -28.6853 6.64909 -24.3633
ltibia 42.2683
lfoot -17.9409 9.09169
ltoes 12.783
663
root 5.27361 16.9108 1.90723 6.94601 -14.5561 -6.84166
lowerback 21.6887 -0.435531 3.76856
upperback 5.66395 0.266083 1.14547
thorax -5.91028 0.0694 -0.980868
lowerneck -15.0101 -0.468427 -2.10267
upperneck 37.8497 0.109439 -0.886752
head 15.97 -0.456508 -0.0108292
rclavicle 2.78299e-015 -1.27222e-014
rhumerus -34.2369 -7.54546 -17.5137
rradius 34.7699
rwrist 5.42486
rhand -18.2205 -46.5612
rfingers 7.12502
rthumb 8.05753 -76.3876
lclavicle 2.78299e-015 -1.27222e-014
lhumerus -35.0196 7.10236 12.2633
lradius 27.7776
lwrist 15.9063
lhand -25.346 -31.8606
lfingers 7.12502
lthumb 1.17736 -1.88412
rfemur -100.878 0.094554 26.8031
rtibia 95.5211
rfoot 47.9651 1.87161
rtoes -5.331
lfemur -28.6815 6.6711 -24.3862
ltibia 42.259
lfoot -17.9398 9.09972
ltoes 13.2131
664
root 5.27234 16.9093 1.90739 6.96634 -14.5786 -6.91786
lowerback 21.6796 -0.424902 3.83046
upperback 5.64609 0.295964 1.18171
thorax -5.92334 0.0829275 -0.984773
lowerneck -15.1598 -0.471959 -2.10861
upperneck 38.074 0.12519 -0.921019
head 16.1222 -0.458767 -0.0240027
rclavicle 2.90226e-014 -3.69739e-014
rhumerus -34.3493 -7.37401 -17.5339
rradius 34.9747
rwrist 5.19894
rhand -18.1271 -46.75
rfingers 7.12502
rthumb 8.14771 -76.5729
lclavicle 2.90226e-014 -3.69739e-014
lhumerus -35.0834 6.96355 12.3739
lradius 27.8744
lwrist 15.9319
lhand -25.2764 -33.5886
lfingers 7.12502
lthumb 1.24465 -3.61251
rfemur -100.813 0.147329 26.8739
rtibia 95.4717
rfoot 48.0826 1.29087
rtoes -4.39446
lfemur -28.7102 6.65267 -24.2946
ltibia 42.2825
lfoot -17.9492 9.07272
ltoes 13.4768
665
root 5.27321 16.9078 1.90856 7.0081 -14.4613 -7.02844
lowerback 21.5682 -0.478779 4.04386
upperback 5.6736 0.266914 1.20209
thorax -5.83502 0.0690305 -1.07661
lowerneck -15.2519 -0.497179 -2.13589
upperneck 38.1625 0.092398 -0.900731
head 16.191 -0.474446 -0.0170066
rclavicle 2.66371e-014 4.77083e-015
rhumerus -34.4221 -7.46168 -17.4977
rradius 34.9969
rwrist 5.27175
rhand -18.05 -46.6199
rfingers 7.12502
rthumb 8.2221 -76.4399
lclavicle 2.66371e-014 4.77083e-015
lhumerus -34.993 6.9811 12.4297
lradius 27.8304
lwrist 15.7757
lhand -25.1064 -34.5508
lfingers 7.12502
lthumb 1.40881 -4.57573
rfemur -100.767 0.0575565 26.9969
rtibia 95.4382
rfoot 48.0903 1.27161
rtoes -4.08125
lfemur -28.7537 6.46032 -24.1604
ltibia 42.3417
lfoot -17.9855 9.1119
ltoes 13.7751
666
root 5.27696 16.9049 1.90691 7.06065 -14.4213 -7.06791
lowerback 21.4824 -0.505931 4.19572
upperback 5.69917 0.256856 1.1778
thorax -5.76159 0.0646614 -1.18656
lowerneck -15.2713 -0.51573 -2.0924
upperneck 38.1146 0.0664206 -0.938898
head 16.1711 -0.483242 -0.0456282
rclavicle 1.59028e-015 -1.47101e-014
rhumerus -34.4464 -7.72267 -17.4351
rradius 34.8801
rwrist 5.43009
rhand -18.1231 -46.349
rfingers 7.12502
rthumb 8.15148 -76.1718
lclavicle 1.59028e-015 -1.47101e-014
lhumerus -34.7944 7.2119 12.3578
lradius 27.6668
lwrist 15.5997
lhand -24.9522 -34.1881
lfingers 7.12502
lthumb 1.55772 -4.21401
rfemur -100.802 -0.000337748 27.0523
rtibia 95.4168
rfoot 48.0656 1.63753
rtoes -4.63906
lfemur -28.8302 6.25414 -24.1206
ltibia 42.4111
lfoot -18.0339 9.2513
ltoes 14.1925
667
root 5.27686 16.9008 1.90344 7.11986 -14.5144 -7.14885
lowerback 21.5058 -0.485713 4.22008
upperback 5.67517 0.291686 1.20007
thorax -5.7979 0.0802402 -1.18537
lowerneck -15.2905 -0.49116 -2.00725
upperneck 38.1229 0.122911 -1.06019
head 16.18 -0.464851 -0.10387
rclavicle 1.03368e-014 -2.38542e-014
rhumerus -34.3852 -7.93945 -17.3581
rradius 34.7013
rwrist 5.57459
rhand -18.6704 -45.8716
rfingers 7.12502
rthumb 7.62331 -75.7142
lclavicle 1.03368e-014 -2.38542e-014
lhumerus -34.7822 7.21839 12.3655
lradius 27.642
lwrist 15.5698
lhand -25.074 -33.8882
lfingers 7.12502
lthumb 1.4401 -3.9133
rfemur -100.8 0.127869 27.1393
rtibia 95.3693
rfoot 47.9897 1.91873
rtoes -5.29573
lfemur -28.9148 6.19026 -24.0357
ltibia 42.4552
lfoot -18.0862 9.42329
ltoes 14.446
668
root 5.27611 16.8976 1.90373 7.14922 -14.6146 -7.17276
lowerback 21.4383 -0.441167 4.22137
upperback 5.68208 0.346183 1.21109
thorax -5.75279 0.107427 -1.18818
lowerneck -15.2482 -0.494537 -2.02678
upperneck 38.1019 0.130085 -1.07775
head 16.1589 -0.466639 -0.106367
rclavicle 1.70955e-014 0
rhumerus -34.3338 -8.26519 -17.2293
rradius 34.4719
rwrist 5.76124
rhand -18.9286 -45.4103
rfingers 7.12502
rthumb 7.37412 -75.2618
lclavicle 1.70955e-014 0
lhumerus -34.8233 7.14496 12.4654
lradius 27.7005
lwrist 15.4852
lhand -25.4707 -34.0521
lfingers 7.12502
lthumb 1.05696 -4.07498
rfemur -100.777 0.241967 27.1665
rtibia 95.3384
rfoot 47.9724 2.1541
rtoes -5.587
lfemur -28.9595 6.12708 -24.0147
ltibia 42.5037
lfoot -18.1192 9.60537
ltoes 14.4959
